# xmcd CD database file
#
# Track frame offsets:
#	150
#	23092
#	37799
#	53364
#	71614
#	91052
#	109714
#	129762
#	155434
#	175577
#	198719
#	201597
#	221297
#
# Disc length: 3339 seconds
#
# Revision: 0
# Processed by: cddbd v1.5.1PL2 Copyright (c) Steve Scherf et al.
# Submitted via: CDex 1.51
#
DISCID=a00d090d
DTITLE=甲斐バンド - THE BIG GIG [CD1]
DYEAR=1983
DGENRE=Japanese Rock
TTITLE0=ブライトン・ロック
TTITLE1=ダイナマイトが150屯
TTITLE2=危険な道連れ
TTITLE3=テレフォン・ノイローゼ
TTITLE4=ムーンライト・プリズナー
TTITLE5=シーズン
TTITLE6=Gold
TTITLE7=ボーイッシュ・ガール
TTITLE8=荒野をくだって
TTITLE9=Midnight
TTITLE10=MC
TTITLE11=安奈
TTITLE12=ナイト・ウェイブ
EXTD=YEAR: 1983
EXTT0=
EXTT1=
EXTT2=
EXTT3=
EXTT4=
EXTT5=
EXTT6=
EXTT7=
EXTT8=
EXTT9=
EXTT10=
EXTT11=
EXTT12=
PLAYORDER=
